PathFileType	4	(X/Y/Z)	C:\Users\Basilio\Documents\Thesis Gigler\squatting_fais\c3dfiles\041\SLS_pre_front5\markers_experimental.trc
DataRate	CameraRate	NumFrames	NumMarkers	Units	OrigDataRate	OrigDataStartFrame	OrigNumFrames
200.000000	200.000000	4	62	mm	200.000000	322	1289
Frame#	Time	FHD			LBHD			RBHD			C7			T10			CLAV			LSHO			LUUPA			LMUPA			LDUPA			LLEP			LMEP			LRAD			LUL			LRFIN			RSHO			RUPA1			RMUPA			RDUPA			RLEP			RMEP			RRAD			RUL			RUFIN			LASI			RASI			USACR			LSACR			RSACR			LTHI1			LTHI2			LTHI3			LTHI4			LLFC			LMFC			LTIB1			LTIB2			LTIB3			LTIB4			LLMAL			LMMAL			LHEE			LMT1			LMT2			LMT5			RTHI			RTHI2			RTHI3			RTHI4			RLFC			RMFC			RTIB1			RTIB2			RTIB3			RTIB4			RLMAL			RMMAL			RHEE			RMT1			RMT2			RMT5			*61			
		X1	Y1	Z1	X2	Y2	Z2	X3	Y3	Z3	X4	Y4	Z4	X5	Y5	Z5	X6	Y6	Z6	X7	Y7	Z7	X8	Y8	Z8	X9	Y9	Z9	X10	Y10	Z10	X11	Y11	Z11	X12	Y12	Z12	X13	Y13	Z13	X14	Y14	Z14	X15	Y15	Z15	X16	Y16	Z16	X17	Y17	Z17	X18	Y18	Z18	X19	Y19	Z19	X20	Y20	Z20	X21	Y21	Z21	X22	Y22	Z22	X23	Y23	Z23	X24	Y24	Z24	X25	Y25	Z25	X26	Y26	Z26	X27	Y27	Z27	X28	Y28	Z28	X29	Y29	Z29	X30	Y30	Z30	X31	Y31	Z31	X32	Y32	Z32	X33	Y33	Z33	X34	Y34	Z34	X35	Y35	Z35	X36	Y36	Z36	X37	Y37	Z37	X38	Y38	Z38	X39	Y39	Z39	X40	Y40	Z40	X41	Y41	Z41	X42	Y42	Z42	X43	Y43	Z43	X44	Y44	Z44	X45	Y45	Z45	X46	Y46	Z46	X47	Y47	Z47	X48	Y48	Z48	X49	Y49	Z49	X50	Y50	Z50	X51	Y51	Z51	X52	Y52	Z52	X53	Y53	Z53	X54	Y54	Z54	X55	Y55	Z55	X56	Y56	Z56	X57	Y57	Z57	X58	Y58	Z58	X59	Y59	Z59	X60	Y60	Z60	X61	Y61	Z61	X62	Y62	Z62	

323	1.61	-224.3295288085938	1769.272583007813	-1088.37109375	-396.8341064453126	1694.756225585938	-1166.006225585938	-379.2721862792969	1698.99072265625	-1014.101989746094	-429.683563232422	1543.238891601563	-1101.22509765625	-443.1654663085939	1229.803466796875	-1073.583374023438	-267.1988220214844	1492.21826171875	-1105.462768554688	-360.7119140625001	1539.419677734375	-1258.04638671875	-295.8968505859376	1460.937377929688	-1407.215942382813	-249.4464874267579	1477.152587890625	-1411.059814453125	-255.3997650146485	1439.172973632813	-1459.168579101563	-217.9117584228516	1424.53955078125	-1488.727661132813	-177.5726776123047	1361.192749023438	-1446.316650390625	54.61009597778322	1423.858276367188	-1553.032470703125	20.8720760345459	1401.196411132813	-1614.778076171875	110.6263732910157	1455.129638671875	-1594.918212890625	-344.8291015625001	1562.155639648438	-962.684020996094	-230.6913452148438	1507.763671875	-812.9558715820315	-201.7071228027344	1540.930419921875	-837.1213989257815	-163.9959869384766	1523.627685546875	-794.9741210937502	-119.5894393920899	1524.245727539063	-782.875915527344	-100.4191360473633	1448.02783203125	-817.1328735351565	150.8000183105469	1519.85791015625	-811.4201660156252	139.3765106201172	1517.06201171875	-736.7534179687501	229.3610076904297	1541.928588867188	-802.2849121093752	-265.3252258300782	1041.972290039063	-1168.482666015625	-273.0632324218751	1061.887084960938	-944.0584716796877	-450.921600341797	1113.193115234375	-1064.453735351563	-462.3300170898439	1083.952392578125	-1088.887939453125	-467.232147216797	1088.463500976563	-1034.326293945313	-353.2649536132813	820.903259277344	-1216.151123046875	-304.9972839355469	751.5911254882814	-1209.12255859375	-258.2846679687501	763.4826049804689	-1204.018432617188	-321.9257507324219	695.2354736328126	-1192.451171875	-276.4492187500001	525.9984130859376	-1164.054809570313	-262.4251708984376	517.8981323242189	-1046.659790039063	-270.2025146484376	337.9454956054688	-1091.309814453125	-326.7250976562501	298.4506225585938	-1146.99267578125	-289.0045166015626	289.7899780273438	-1122.273803710938	-303.0617675781251	218.167953491211	-1081.848266601563	-378.8038024902344	132.8643951416016	-1108.934692382813	-339.0408020019532	140.6029815673828	-1028.64697265625	-447.245330810547	118.9940567016602	-1062.419067382813	-240.3603668212891	62.7138023376465	-1041.304931640625	-235.8933715820313	55.69698715209962	-1085.946899414063	-285.0252075195313	42.6590919494629	-1138.714721679688	-248.3537750244141	820.553649902344	-855.8109130859377	-184.1473083496094	806.2539062500002	-858.3662719726565	-160.7099761962891	828.445251464844	-868.351745605469	-153.2423553466797	727.1766357421876	-869.141296386719	-70.17514038085939	630.3909912109376	-869.1963500976565	-45.30479431152344	622.2443237304689	-986.2656860351565	65.20616912841798	525.7157592773439	-870.8225097656252	52.78277969360353	413.948455810547	-852.255798339844	89.68639373779298	443.0306091308595	-853.7442626953127	138.9670562744141	421.1545715332032	-878.981872558594	177.646484375	293.7998657226563	-859.4951171875002	188.3807983398438	327.4874877929688	-939.9575805664065	166.0501403808594	222.7803802490235	-910.5538330078127	322.0152587890626	372.9073486328126	-916.351013183594	318.5390014648438	380.2097778320313	-864.4155273437502	303.1426696777344	332.9268493652344	-817.8169555664065	-4216.755371093751	853.0809326171877	-3944.832519531251	
324	1.615	-224.2590332031251	1769.247924804688	-1088.46923828125	-396.8396301269532	1694.568359375	-1166.054321289063	-379.1813354492188	1698.88134765625	-1014.203857421875	-429.5598144531251	1543.107177734375	-1101.2578125	-443.2315368652345	1229.72900390625	-1073.693603515625	-267.1571044921876	1492.067138671875	-1105.487915039063	-360.6241149902344	1539.378540039063	-1258.012939453125	-295.9163513183594	1461.451782226563	-1407.268188476563	-249.2877960205079	1477.799194335938	-1411.014282226563	-255.159652709961	1439.821655273438	-1459.278564453125	-217.6839752197266	1425.303955078125	-1488.769897460938	-177.161865234375	1362.116943359375	-1446.378662109375	54.64673614501955	1424.95556640625	-1553.351196289063	20.89521408081055	1402.491821289063	-1615.105590820313	110.7627868652344	1456.312133789063	-1595.177124023438	-344.7717895507813	1562.106811523438	-962.8569335937502	-230.371566772461	1508.532470703125	-813.1270141601565	-201.7064361572266	1541.645141601563	-837.264343261719	-164.0998229980469	1524.290283203125	-795.0906372070315	-119.8196716308594	1525.332885742188	-782.7307739257815	-99.90626525878909	1448.919799804688	-817.4168701171877	151.1364135742188	1521.313598632813	-811.0356445312502	139.1866607666016	1518.593139648438	-736.2216796875001	229.3606262207032	1543.561889648438	-801.514831542969	-265.4529418945313	1041.854614257813	-1168.503784179688	-273.2511291503907	1061.837890625	-944.113708496094	-451.1280822753907	1113.072875976563	-1064.54736328125	-462.3548278808595	1083.767700195313	-1088.958129882813	-467.2666320800782	1088.315673828125	-1034.37109375	-353.0991821289063	820.678894042969	-1216.270385742188	-304.8308410644532	751.4735107421876	-1209.233154296875	-258.0920104980469	763.3952026367189	-1204.10791015625	-321.6851196289063	695.1033325195314	-1192.631713867188	-275.9044189453126	525.9647216796876	-1164.222900390625	-262.1971740722657	517.8762817382814	-1046.6923828125	-269.9018249511719	337.9205017089844	-1091.480834960938	-326.6389770507813	298.3672790527344	-1147.234130859375	-288.6995239257813	289.8090515136719	-1122.40234375	-302.9227294921876	218.1208038330079	-1081.981201171875	-378.8439636230469	132.9010467529297	-1108.969116210938	-339.0165100097657	140.58642578125	-1028.690185546875	-447.2568359375001	119.0206832885742	-1062.398315429688	-240.4014892578126	62.71656417846681	-1041.321899414063	-235.8485412597657	55.7243995666504	-1085.926391601563	-285.0448608398438	42.68974304199219	-1138.756103515625	-248.075180053711	820.7387695312502	-855.9866943359377	-183.571533203125	806.803649902344	-858.6274414062502	-160.543441772461	828.9100341796877	-868.4403076171877	-152.5684814453125	727.8227539062501	-869.517272949219	-69.53633880615236	631.1574707031251	-869.443054199219	-44.59288787841798	623.2570190429689	-986.6761474609377	66.11374664306642	526.7312011718751	-871.205261230469	54.27950286865236	415.1819763183595	-852.5410766601565	90.9659881591797	444.0155029296876	-854.2263793945315	140.28076171875	422.3694763183595	-879.399841308594	179.3756713867188	295.0308837890626	-860.0610961914065	190.0851745605469	328.9511718750001	-940.5059814453127	168.0254974365235	224.1649169921876	-911.288269042969	323.5783996582032	374.5549621582032	-916.8569335937502	319.7655944824219	381.5895385742188	-864.875183105469	304.5843505859376	334.7476806640626	-818.268249511719	-4216.716796875001	853.1251220703127	-3944.835937500001	
325	1.62	-224.1653442382813	1769.0771484375	-1088.616455078125	-396.766815185547	1694.364501953125	-1166.083129882813	-378.9678039550782	1698.7490234375	-1014.194641113281	-429.449188232422	1543.014404296875	-1101.302368164063	-443.3125000000001	1229.666748046875	-1073.796508789063	-267.0387878417969	1491.905029296875	-1105.508666992188	-360.5452270507813	1539.358032226563	-1257.984375	-295.7811584472657	1461.87109375	-1407.230834960938	-249.2272949218751	1478.312377929688	-1410.962036132813	-254.9796295166016	1440.434814453125	-1459.329956054688	-217.4234619140626	1426.1103515625	-1488.8916015625	-176.8292846679688	1362.747436523438	-1446.677978515625	55.02365493774415	1425.931884765625	-1553.734375	21.17202186584473	1403.6884765625	-1615.469360351563	110.8135299682617	1457.591918945313	-1595.450439453125	-344.7189331054688	1562.096313476563	-963.0289306640627	-230.4087982177735	1509.136352539063	-813.162536621094	-201.792221069336	1542.045166015625	-837.455749511719	-164.1375427246094	1525.061279296875	-795.243591308594	-119.8438491821289	1526.187744140625	-782.9062500000002	-99.50108337402347	1450.072998046875	-817.6956787109377	151.1806182861328	1522.81396484375	-810.565612792969	139.0952301025391	1520.261962890625	-735.9131469726564	229.3967895507813	1545.110229492188	-800.921813964844	-265.6632995605469	1041.742065429688	-1168.483520507813	-273.4079895019532	1061.8447265625	-944.1649169921877	-451.3121948242189	1112.99169921875	-1064.62548828125	-462.6492004394532	1083.689453125	-1089.054931640625	-467.5109252929689	1088.234008789063	-1034.493774414063	-353.1046142578126	820.566589355469	-1216.439697265625	-304.7146301269532	751.3042602539064	-1209.351684570313	-257.9841308593751	763.3530273437501	-1204.260498046875	-321.4075927734376	694.9209594726564	-1192.824462890625	-275.6468811035157	525.9837036132814	-1164.425415039063	-261.8021240234376	517.8706665039064	-1046.784057617188	-269.6255187988282	337.9115295410157	-1091.689331054688	-326.4815368652344	298.3712768554688	-1147.384521484375	-288.4167175292969	289.7568054199219	-1122.563720703125	-302.8726501464844	218.3510131835938	-1081.875610351563	-378.8265380859376	132.9647064208985	-1109.009399414063	-338.9351196289063	140.7217864990235	-1028.737548828125	-447.2257690429689	119.0382537841797	-1062.4208984375	-240.3819274902344	62.72666549682619	-1041.326293945313	-235.8652648925782	55.65267181396486	-1086.04150390625	-285.0796203613282	42.68173599243165	-1138.7529296875	-247.8493957519532	820.9361572265627	-856.0708007812502	-183.3182373046875	807.0776367187502	-858.7271728515627	-160.253662109375	829.368591308594	-868.7462158203127	-152.2331085205078	728.1806030273439	-869.5735473632815	-68.84996795654298	631.7394409179689	-869.718444824219	-44.09105300903321	623.9489135742189	-986.8148193359377	67.12502288818361	527.8086547851564	-871.5596923828127	55.47465133666994	416.1371459960939	-852.826354980469	92.35942840576173	445.1016235351564	-854.6560668945315	141.5363922119141	423.4667358398439	-879.7671508789065	180.739730834961	296.3401184082032	-860.4819946289065	191.5685577392578	330.0439147949219	-941.088806152344	169.8130950927735	225.6119689941407	-911.897888183594	325.0237731933594	376.1296997070313	-917.3447875976565	321.0901184082032	383.3088989257813	-865.410583496094	306.1380615234376	336.2853088378907	-818.7410888671877	-4216.765625000001	853.0715942382815	-3944.703125000001	
326	1.625	-224.1836853027344	1768.964111328125	-1088.676513671875	-396.7091064453126	1694.1982421875	-1166.115234375	-378.8649902343751	1698.623046875	-1014.2265625	-429.3522338867189	1542.903686523438	-1101.31591796875	-443.3623657226564	1229.607177734375	-1073.908935546875	-266.8277893066407	1491.800659179688	-1105.514282226563	-360.4453430175782	1539.327392578125	-1257.912841796875	-295.5870666503907	1462.295776367188	-1407.246337890625	-249.0331268310547	1478.777465820313	-1411.045654296875	-254.7963562011719	1440.992065429688	-1459.3974609375	-217.2069549560547	1426.86083984375	-1488.932861328125	-176.7759857177735	1363.427368164063	-1447.007446289063	55.19158935546876	1427.027709960938	-1554.128784179688	21.36884689331055	1404.946044921875	-1615.869506835938	110.8576965332032	1458.959228515625	-1595.65380859375	-344.7124328613282	1562.06201171875	-963.1923828125002	-230.3618316650391	1509.618041992188	-813.2432250976565	-201.9099273681641	1542.648071289063	-837.5207519531252	-163.9430236816407	1525.948486328125	-795.3209228515627	-119.7829132080078	1526.972412109375	-783.0808105468752	-99.37506103515628	1450.89599609375	-817.6069946289065	150.8544616699219	1524.272827148438	-810.125427246094	139.259506225586	1521.692138671875	-735.4169311523439	229.4042968750001	1546.869018554688	-800.5280761718752	-265.4607238769532	1041.467407226563	-1168.379028320313	-273.6509704589844	1061.777709960938	-944.1910400390627	-451.520965576172	1112.90185546875	-1064.7177734375	-462.8774414062501	1083.554565429688	-1089.156860351563	-467.6871643066407	1088.131958007813	-1034.57861328125	-353.1049804687501	820.3879394531252	-1216.532470703125	-304.5793151855469	751.2372436523439	-1209.53125	-257.9220886230469	763.2819213867189	-1204.407836914063	-321.2969360351563	694.6312866210939	-1193.322021484375	-276.0309143066407	525.9804077148439	-1164.572021484375	-261.1954040527344	517.8167724609376	-1047.041625976563	-269.4051513671876	337.8867492675782	-1091.837158203125	-326.3179321289063	298.3518066406251	-1147.413696289063	-288.2705993652344	289.6855468750001	-1122.64111328125	-302.6716918945313	218.0123138427735	-1082.15673828125	-378.7655944824219	132.9402008056641	-1109.038940429688	-338.9470825195313	140.7049102783203	-1028.779052734375	-447.2239990234376	119.135856628418	-1062.438232421875	-240.3766174316407	62.70875167846681	-1041.325439453125	-235.8549804687501	55.67076873779298	-1086.035400390625	-285.0830688476563	42.68720626831055	-1138.788696289063	-247.4886932373047	821.130310058594	-856.2421875000002	-183.0199584960938	807.3774414062502	-858.8718872070315	-160.0187530517578	829.6831665039065	-868.980895996094	-151.643783569336	728.6089477539064	-869.8177490234377	-68.06442260742189	632.4913940429689	-869.8869628906252	-43.37274169921876	624.7088012695314	-987.1492309570315	67.76119232177736	528.7442626953126	-871.9638671875002	56.73886871337892	417.0321350097657	-853.258483886719	93.25996398925783	446.1101074218751	-855.0855712890627	142.7188720703125	424.6879272460939	-880.4390258789065	182.2823791503907	297.5320129394532	-861.1538085937502	192.9116821289063	331.0807800292969	-941.6081542968752	171.9921417236328	226.1054077148438	-912.511169433594	326.3925170898438	377.5941162109376	-917.7905273437502	322.5303344726563	385.0129699707032	-865.9002075195315	307.4710998535157	337.6522216796876	-819.2498168945315	-4216.881347656251	853.135437011719	-3944.571533203126	
